<?xml version="1.0" encoding="utf-8"?>
<!-- Generator: Adobe Illustrator 19.1.0, SVG Export Plug-In . SVG Version: 6.00 Build 0)  -->
<svg version="1.1" id="Layer_1" xmlns="http://www.w3.org/2000/svg" xmlns:xlink="http://www.w3.org/1999/xlink" x="0px" y="0px"
	 width="1024px" height="1024px" viewBox="0 0 1024 1024" style="enable-background:new 0 0 1024 1024;" xml:space="preserve">
<style type="text/css">
	.st0{fill:#242729;}
	.st1{fill:#5240FF;}
</style>
<rect x="-55.7" y="-36.5" class="st0" width="1146.4" height="1146.4"/>
<path class="st1" d="M-7.8,2.3C145.9,387.8,243.5,489.9,307.9,480c82-12.6,102.6-205.6,188.9-208.3c88-2.7,119.1,196.8,208,208.3
	c68.2,8.8,168.3-93.3,319.3-482.6C680.1-1,336.2,0.6-7.8,2.3z"/>
<path class="st1" d="M1027.9,1015C874.2,629.6,776.7,527.5,712.3,537.3c-82,12.6-102.6,205.6-188.9,208.3
	c-88,2.7-119.1-196.8-208-208.3c-68.2-8.8-168.3,93.3-319.3,482.6C340,1018.3,684,1016.7,1027.9,1015z"/>
</svg>
