<?xml version="1.0" encoding="utf-8"?>
<!-- Generator: Adobe Illustrator 19.1.0, SVG Export Plug-In . SVG Version: 6.00 Build 0)  -->
<svg version="1.1" id="Capa_1" xmlns="http://www.w3.org/2000/svg" xmlns:xlink="http://www.w3.org/1999/xlink" x="0px" y="0px"
	 width="353.3px" height="353.3px" viewBox="-334 336.7 353.3 353.3" style="enable-background:new -334 336.7 353.3 353.3;"
	 xml:space="preserve">
<style type="text/css">
	.st0{fill:#FFFFFF;}
</style>
<path class="st0" d="M15.4,482.4l-48.8-26.2l39-26.3c2.2-1.5,3.5-4,3.3-6.7s-1.7-5-4.1-6.2l-110-55c-2.3-1.2-5.1-1-7.3,0.3
	l-44.7,27.7l-44.7-27.7c-2.2-1.4-5-1.5-7.3-0.3l-110,55c-2.4,1.2-4,3.6-4.1,6.2c-0.2,2.7,1.1,5.2,3.3,6.7l39,26.3l-48.8,26.2
	c-2.4,1.3-3.9,3.7-4,6.5c-0.1,2.7,1.3,5.2,3.7,6.6l109,64.6c1.2,0.7,2.5,1,3.8,1c1.2,0,2.4-0.3,3.5-0.9l49.2-26.4v111.9l-94.7-47.5
	V555c0-4.1-3.4-7.5-7.5-7.5c-4.1,0-7.5,3.4-7.5,7.5v47.9c0,2.8,1.6,5.4,4.1,6.7l109.7,55c0.1,0,0.1,0.1,0.2,0.1
	c0.1,0.1,0.2,0.1,0.4,0.2c0.2,0.1,0.4,0.1,0.6,0.2c0.1,0,0.2,0.1,0.3,0.1c0.2,0.1,0.4,0.1,0.6,0.1c0.1,0,0.2,0,0.3,0.1
	c0.3,0,0.6,0.1,0.8,0.1c0,0,0.1,0,0.1,0c0.3,0,0.6,0,1-0.1c0.1,0,0.2,0,0.2,0c0.2,0,0.5-0.1,0.7-0.1c0.1,0,0.2-0.1,0.3-0.1
	c0.2-0.1,0.4-0.1,0.6-0.2c0.1,0,0.2-0.1,0.3-0.1c0.1,0,0.1-0.1,0.2-0.1l109.7-55c2.5-1.3,4.1-3.9,4.1-6.7V555c0-4.1-3.4-7.5-7.5-7.5
	s-7.5,3.4-7.5,7.5v43.3l-94.7,47.5V533.9l49.2,26.4c1.1,0.6,2.3,0.9,3.5,0.9c1.3,0,2.6-0.3,3.8-1l109-64.6c2.3-1.4,3.7-3.9,3.7-6.6
	C19.3,486.2,17.8,483.7,15.4,482.4z M-157.3,512.6l-94-55.7l94-49.6l94,49.6L-157.3,512.6z M-108.2,377.3l94.8,47.4L-48.1,448
	l-94.2-49.7L-108.2,377.3z M-206.4,377.3l34,21.1l-94.2,49.7l-34.6-23.3L-206.4,377.3z M-217.4,545l-93.9-55.6l44.8-24l93.9,55.6
	L-217.4,545z M-97.3,545l-44.8-24l93.9-55.6l44.8,24L-97.3,545z"/>
</svg>
