<?xml version="1.0" encoding="utf-8"?>
<!-- Generator: Adobe Illustrator 19.1.0, SVG Export Plug-In . SVG Version: 6.00 Build 0)  -->
<svg version="1.1" id="Layer_1" xmlns="http://www.w3.org/2000/svg" xmlns:xlink="http://www.w3.org/1999/xlink" x="0px" y="0px"
	 width="1280px" height="1280px" viewBox="128 -128 1280 1280" style="enable-background:new 128 -128 1280 1280;"
	 xml:space="preserve">
<style type="text/css">
	.st0{fill:#F5F5F5;}
</style>
<g transform="translate(0.000000,1280.000000) scale(0.100000,-0.100000)">
	<path class="st0" d="M5750,12980c-1261-110-2368-843-2959-1961c-414-785-529-1723-315-2584c237-951,844-1771,1688-2278
		c1121-673,2523-695,3659-59c119,67,333,204,402,258l30,24l1965-1964c1529-1528,1977-1970,2020-1994c199-110,430-72,600,98
		c169,169,208,403,98,599c-24,44-466,492-1994,2021L8980,7105l24,30c54,69,189,279,257,400c427,762,564,1652,388,2517
		c-115,570-355,1077-740,1567c-103,131-411,441-539,543c-570,452-1194,718-1890,803C6330,12984,5897,12992,5750,12980z M6342,12055
		c953-101,1780-684,2192-1545c115-241,187-467,231-725c135-793-71-1588-574-2212c-96-120-295-318-414-413c-412-329-897-529-1432-591
		c-137-16-456-16-595,0c-529,60-1024,266-1440,597c-109,87-327,305-414,414c-311,390-508,848-583,1355c-25,171-25,593,0,755
		c51,330,131,585,269,862c323,647,891,1142,1573,1372c193,66,426,116,620,135C5920,12073,6194,12071,6342,12055z"/>
</g>
</svg>
