<?xml version="1.0" encoding="utf-8"?>
<!-- Generator: Adobe Illustrator 19.1.0, SVG Export Plug-In . SVG Version: 6.00 Build 0)  -->
<svg version="1.1" id="Layer_1" xmlns="http://www.w3.org/2000/svg" xmlns:xlink="http://www.w3.org/1999/xlink" x="0px" y="0px"
	 width="20px" height="20px" viewBox="-501 503 20 20" style="enable-background:new -501 503 20 20;" xml:space="preserve">
<style type="text/css">
	.st0{fill:#FFFFFF;}
</style>
<g>
	<path class="st0" d="M-494.5,511.5c0.5,0.5,1,0.8,1.6,1.1c0.6,0.3,1.3,0.4,2,0.4c0.7,0,1.3-0.1,2-0.4c0.6-0.3,1.1-0.6,1.6-1.1
		s0.8-1,1.1-1.6c0.3-0.6,0.4-1.3,0.4-1.9c0-0.7-0.1-1.3-0.4-2c-0.3-0.6-0.6-1.1-1.1-1.6s-1-0.8-1.6-1.1c-0.6-0.3-1.3-0.4-2-0.4
		c-0.7,0-1.3,0.1-2,0.4c-0.6,0.3-1.1,0.6-1.6,1.1s-0.8,1-1.1,1.6c-0.3,0.6-0.4,1.3-0.4,2c0,0.7,0.1,1.3,0.4,1.9
		C-495.4,510.6-495,511.1-494.5,511.5z"/>
	<path class="st0" d="M-484,513.7c-0.6-0.6-1.3-1.2-2.1-1.6c-0.1,0.1-0.2,0.3-0.4,0.4c-0.6,0.6-1.3,1-2,1.4
		c-0.8,0.3-1.6,0.5-2.5,0.5c-0.9,0-1.7-0.2-2.5-0.5c-0.8-0.3-1.4-0.8-2-1.4c-0.1-0.1-0.3-0.3-0.4-0.4c-0.8,0.4-1.5,1-2.1,1.6
		c-0.9,0.9-1.6,2-2.1,3.1c-0.5,1.2-0.8,2.5-0.8,3.8c0,0.8,0.1,1.6,0.3,2.3h19.2c0.2-0.8,0.3-1.5,0.3-2.3c0-1.3-0.3-2.6-0.8-3.8
		C-482.4,515.7-483.1,514.6-484,513.7z"/>
</g>
</svg>
