<?xml version="1.0" encoding="utf-8"?>
<!-- Generator: Adobe Illustrator 19.1.0, SVG Export Plug-In . SVG Version: 6.00 Build 0)  -->
<svg version="1.1"
	 id="Layer_1" sodipodi:docname="WMF-Agora-Settings_000000.svg" inkscape:version="0.48.3.1 r9886" xmlns:dc="http://purl.org/dc/elements/1.1/" xmlns:inkscape="http://www.inkscape.org/namespaces/inkscape" xmlns:cc="http://creativecommons.org/ns#" xmlns:svg="http://www.w3.org/2000/svg" xmlns:sodipodi="http://sodipodi.sourceforge.net/DTD/sodipodi-0.dtd" xmlns:rdf="http://www.w3.org/1999/02/22-rdf-syntax-ns#"
	 xmlns="http://www.w3.org/2000/svg" xmlns:xlink="http://www.w3.org/1999/xlink" x="0px" y="0px" width="32px" height="32px"
	 viewBox="-495 497 32 32" style="enable-background:new -495 497 32 32;" xml:space="preserve">
<style type="text/css">
	.st0{fill:#FFFFFF;}
</style>
<sodipodi:namedview  inkscape:pageshadow="2" inkscape:window-y="27" inkscape:window-width="1920" inkscape:pageopacity="0" inkscape:window-x="0" inkscape:window-height="1024" inkscape:guide-bbox="true" inkscape:window-maximized="1" inkscape:current-layer="Layer_1" id="namedview3" showgrid="false" borderopacity="1" gridtolerance="10" guidetolerance="10" pagecolor="#ffffff" bordercolor="#666666" objecttolerance="10" inkscape:cy="-0.60738534" showguides="true" inkscape:cx="-22.749311" inkscape:zoom="5.6568542">
	</sodipodi:namedview>
<path id="rect3381-0" inkscape:connector-curvature="0" class="st0" d="M-481.2,497c-0.5,0-1,0.4-1,1v2.4c-1.2,0.3-2.4,0.8-3.5,1.5
	l-1.7-1.7c-0.4-0.4-1-0.4-1.4,0l-3.1,3.1c-0.4,0.4-0.4,1,0,1.4l1.7,1.7c-0.7,1.1-1.1,2.3-1.4,3.5h-2.4c-0.5,0-1,0.4-1,1v4.4
	c0,0.5,0.4,1,1,1h2.4c0.3,1.2,0.8,2.4,1.5,3.5l-1.7,1.7c-0.4,0.4-0.4,1,0,1.4l3.1,3.1c0.4,0.4,1,0.4,1.4,0l1.7-1.7
	c1.1,0.7,2.3,1.1,3.5,1.4v2.4c0,0.5,0.4,1,1,1h4.4c0.5,0,1-0.4,1-1v-2.4c1.2-0.3,2.4-0.8,3.5-1.4l1.7,1.7c0.4,0.4,1,0.4,1.4,0
	l3.1-3.1c0.4-0.4,0.4-1,0-1.4l-1.7-1.7c0.7-1.1,1.2-2.3,1.5-3.5h2.4c0.5,0,1-0.4,1-1v-4.4c0-0.5-0.4-1-1-1h-2.4
	c-0.3-1.2-0.8-2.4-1.5-3.5l1.7-1.7c0.4-0.4,0.4-1,0-1.4l-3.1-3.1c-0.4-0.4-1-0.4-1.4,0l-1.7,1.7c-1.1-0.7-2.3-1.2-3.5-1.5V498
	c0-0.5-0.4-1-1-1C-476.8,497-481.2,497-481.2,497z M-479.2,507c1.5,0,3.1,0.5,4.3,1.6c2.4,2.3,2.5,6.1,0.2,8.6
	c-2.3,2.4-6.1,2.5-8.6,0.2c-2.4-2.3-2.5-6.1-0.2-8.6C-482.3,507.6-480.7,507-479.2,507z"/>
</svg>
